<?xml version="1.0" encoding="iso-8859-1"?>
<!-- Generator: Adobe Illustrator 15.1.0, SVG Export Plug-In . SVG Version: 6.00 Build 0)  -->
<!DOCTYPE svg PUBLIC "-//W3C//DTD SVG 1.1//EN" "http://www.w3.org/Graphics/SVG/1.1/DTD/svg11.dtd">
<svg version="1.1" id="Layer_1" xmlns="http://www.w3.org/2000/svg" xmlns:xlink="http://www.w3.org/1999/xlink" x="0px" y="0px"
	 width="215px" height="37px" viewBox="198.5 377.5 215 37" style="enable-background:new 198.5 377.5 215 37;"
	 xml:space="preserve">
<g>
	<path style="fill:#00345C;" d="M271.833,408.515c-0.593,0.178-2.195,0.533-4.034,0.593c-4.33-0.06-5.694-1.661-5.694-5.397v-3.915
		c0-3.737,1.364-5.339,5.694-5.398c1.839,0.06,3.381,0.416,4.034,0.593c0.534,0.178,0.949,0.178,1.186,0.06
		c0.771-0.712-0.355-4.211-2.135-4.567l0,0c-1.779-0.416-2.906-0.356-2.906-0.356c-7.118,0-10.499,3.44-10.499,9.728v3.915l0,0
		c0,6.288,3.44,9.729,10.499,9.729c0,0,1.127,0.06,2.906-0.356l0,0c1.78-0.355,2.907-3.855,2.135-4.567
		C272.783,408.336,272.367,408.336,271.833,408.515z"/>
	<path style="fill:#00345C;" d="M352.445,398.549L352.445,398.549v5.102c0,6.524,3.855,9.728,10.381,9.728
		c6.939,0,10.38-3.203,10.38-9.728v-3.737c0-6.584-3.203-9.906-9.49-9.906c-3.203,0-5.398,1.008-6.644,2.966v-8.72
		c0-1.423-1.009-2.669-2.313-3.084c-0.712-0.237-1.602-0.119-1.602-0.119c-0.355,0-0.712,0.297-0.712,0.712V398.549L352.445,398.549
		z M357.132,403.591v-2.729l0,0v-1.067c0-3.797,1.364-5.398,5.812-5.398c4.39,0,5.694,1.661,5.694,5.457v3.737
		c0,3.855-1.187,5.397-5.694,5.397C358.377,408.988,357.132,407.387,357.132,403.591z"/>
	<path style="fill:#00345C;" d="M253.267,393.981c0-1.602-1.067-2.906-2.551-3.322c-0.296-0.119-0.652-0.119-0.949-0.119h-0.771
		c-0.416,0-0.771,0.356-0.771,0.771v18.625c0,1.602,1.068,2.907,2.551,3.322c0.296,0.118,0.652,0.118,0.949,0.118h0.771
		c0.415,0,0.771-0.355,0.771-0.771V393.981z"/>
	<path style="fill:#00345C;" d="M322.49,393.981c0-1.602-1.067-2.906-2.551-3.322c-0.296-0.119-0.652-0.119-0.949-0.119h-0.771
		c-0.414,0-0.771,0.356-0.771,0.771v18.625c0,1.602,1.067,2.907,2.551,3.322c0.297,0.118,0.652,0.118,0.949,0.118h0.771
		c0.416,0,0.771-0.355,0.771-0.771V393.981z"/>
	<path style="fill:#00345C;" d="M199.467,404.421c0,5.695,3.084,9.017,9.846,9.017l0,0h0.06l0,0c6.762,0,9.847-3.321,9.847-9.017
		v-10.617c0-1.78-1.483-3.263-3.263-3.263h-0.711c-0.356,0-0.712,0.297-0.712,0.712v13.168c0,2.907-0.949,4.567-5.22,4.567
		c-4.271,0-5.22-1.602-5.22-4.567v-10.617c0-1.483-1.008-2.669-2.313-3.085c-0.594-0.178-1.661-0.118-1.661-0.118
		c-0.356,0-0.712,0.296-0.712,0.712L199.467,404.421z"/>
	<path style="fill:#00345C;" d="M276.757,404.421c0,5.695,3.084,9.017,9.847,9.017l0,0h0.059l0,0c6.762,0,9.847-3.321,9.847-9.017
		v-10.617c0-1.78-1.483-3.263-3.262-3.263h-0.712c-0.356,0-0.712,0.297-0.712,0.712v13.168c0,2.907-0.949,4.567-5.22,4.567
		c-4.271,0-5.22-1.602-5.22-4.567v-10.617c0-1.483-1.008-2.669-2.313-3.085c-0.593-0.178-1.661-0.118-1.661-0.118
		c-0.356,0-0.712,0.296-0.712,0.712v13.108H276.757z"/>
	<path style="fill:#00345C;" d="M243.361,399.083c0-5.695-3.084-9.017-9.847-9.017l0,0h-0.059l0,0c-6.762,0-9.847,3.322-9.847,9.017
		v11.092c0,1.78,1.483,3.263,3.262,3.263h0.712c0.356,0,0.712-0.297,0.712-0.712v-13.643c0-2.907,0.949-4.568,5.22-4.568
		s5.22,1.602,5.22,4.568v11.092c0,1.483,1.008,2.67,2.313,3.085c0.593,0.178,1.661,0.118,1.661,0.118
		c0.355,0,0.711-0.296,0.711-0.712v-13.583H243.361z"/>
	<g>
		<path style="fill:#00345C;" d="M384.654,390.066c-1.424,0-2.372,0.06-3.144,0.178l0,0c-1.779,0.237-3.203,3.559-2.373,4.211
			c0.237,0.178,0.594,0.119,1.187,0c0.89-0.178,2.433-0.415,4.567-0.415c3.085,0,5.161,0.652,5.161,3.44v2.194h-4.805
			c-5.457,0-8.957,1.779-8.957,6.822c0,4.805,3.203,6.939,8.897,6.939c6.466,0,9.312-2.254,9.312-7.236v-8.779
			C394.561,391.787,390.527,390.066,384.654,390.066z M390.053,405.964c0,3.084-2.076,3.499-4.924,3.499
			c-2.254,0-4.271-0.475-4.271-3.084c0-2.313,1.424-3.203,4.448-3.203h4.805v2.788H390.053z"/>
	</g>
	<path style="fill:#35B6B4;" d="M403.103,401.277h-2.195c-0.355,0-0.593-0.415-0.415-0.712l5.517-10.795l-5.517-10.559
		c-0.178-0.356,0.06-0.711,0.415-0.711h2.195c2.017,0,3.381,0.83,4.271,2.432l5.22,8.897l-5.101,8.897
		C406.483,400.27,405.237,401.277,403.103,401.277z"/>
	<path style="fill:#00345C;" d="M348.056,393.981c0-1.602-1.067-2.906-2.551-3.322c-0.296-0.119-0.652-0.119-0.948-0.119h-0.771
		c-0.415,0-0.771,0.356-0.771,0.771v18.625c0,1.602,1.068,2.907,2.551,3.322c0.297,0.118,0.652,0.118,0.949,0.118h0.771
		c0.415,0,0.771-0.355,0.771-0.771V393.981z"/>
	<path style="fill:#00345C;" d="M339.811,408.811c-0.237-0.178-0.652-0.118-1.187,0.06c-1.245,0.355-2.609,0.118-2.609,0.118
		c-3.5-0.296-4.034-2.787-4.034-4.508v-9.491h5.813c0.415,0,0.712-0.296,0.712-0.711c0,0,0.06-0.831-0.118-1.424
		c-0.416-1.364-1.661-2.313-3.085-2.313h-3.263v-2.373c0-1.424-1.008-2.669-2.313-3.084c-0.712-0.237-1.602-0.119-1.602-0.119
		c-0.355,0-0.712,0.296-0.712,0.712v18.863c0,5.102,2.433,8.897,7.771,8.897c1.365,0,1.958-0.06,2.551-0.297
		C339.277,412.548,340.582,409.522,339.811,408.811z"/>
	<path style="fill:#00345C;" d="M310.923,390.363c0,0-0.89-0.297-1.779-0.297c-1.602,0-3.084,0.652-4.33,1.661
		c-0.593-0.949-1.602-1.602-2.788-1.602h-0.712c-0.356,0-0.711,0.296-0.711,0.712v8.186c0,0,0,0,0,0.06v11.092
		c0,1.78,1.482,3.263,3.262,3.263h0.712c0.355,0,0.712-0.297,0.712-0.712v-12.931l0,0v-1.068c0.059-2.729,1.008-4.33,3.915-4.33
		c1.009,0,2.313,0.356,2.729,0.475c0.534,0.178,1.009,0.297,1.187,0.06C313.415,394.396,312.406,390.838,310.923,390.363z"/>
</g>
</svg>
